<?xml version="1.0" encoding="UTF-8"?>
<svg id="Layer_1" data-name="Layer 1" xmlns="http://www.w3.org/2000/svg" xmlns:xlink="http://www.w3.org/1999/xlink" viewBox="0 0 1600 217.45">
  <defs>
    <style>
      .cls-1 {
        fill: url(#linear-gradient);
      }
    </style>
    <linearGradient id="linear-gradient" x1="800" y1="217.45" x2="800" y2="0" gradientUnits="userSpaceOnUse">
      <stop offset="0" stop-color="#aaa"/>
      <stop offset=".13" stop-color="#b2b2b2"/>
      <stop offset=".35" stop-color="#cbcbcb"/>
      <stop offset=".62" stop-color="#f2f2f2"/>
      <stop offset=".7" stop-color="#fff"/>
    </linearGradient>
  </defs>
  <path class="cls-1" d="M0,166.56V4.92L41.64,0v130.24h114.98l-1.6,36.32H0ZM337.7,90.22v76.34h-30.54l-5.78-9.02-74.95,10.88c-7.4,1.16-13.19,1.62-18.51,1.62-25.44,0-37.47-12.03-37.47-36.09,0-21.51,13.42-32.38,43.72-35.39l84.68-8.1v-6.24c0-6.52-2.06-8.57-5.25-8.52-27.96.41-74.35,3.88-106.26,7.13l1.39-31.46c35.63-3.01,69.4-4.86,91.37-4.86,42.8,0,57.61,11.8,57.61,43.72ZM215.94,142.34l82.9-9.79v-18.97l-85.03,8.07c-2.86.27-4.96,2.82-4.67,5.68l1.04,10.38c.29,2.89,2.89,4.98,5.77,4.64ZM1416.89,90.22v76.34h-30.54l-5.78-9.02-74.95,10.88c-7.4,1.16-13.19,1.62-18.51,1.62-25.44,0-37.47-12.03-37.47-36.09,0-21.51,13.42-32.38,43.72-35.39l84.68-8.1v-6.24c0-6.52-2.06-8.57-5.25-8.52-27.96.41-74.35,3.88-106.26,7.13l1.39-31.46c35.63-3.01,69.4-4.86,91.37-4.86,42.8,0,57.61,11.8,57.61,43.72ZM1295.13,142.34l82.9-9.79v-18.97l-85.03,8.07c-2.86.27-4.96,2.82-4.67,5.68l1.04,10.38c.29,2.89,2.89,4.98,5.77,4.64ZM480.42,49.97h38.86v116.59h-30.06l-6.95-13.42c-25.68,8.79-55.98,16.89-81.44,16.89-27.52,0-40.94-11.57-40.94-38.4V49.97h38.86v79.11c0,6.72,2.18,8.82,5.46,8.63,20.85-1.19,45.68-6.45,72.77-15.95,2.29-.8,3.44-2.49,3.44-7.44V49.97ZM703.18,84.9v81.66h-38.87v-79.11c0-6.71-2.18-8.82-5.45-8.62-21.45,1.27-47.41,7.07-75.09,16.86-2.28.81-3.42,2.49-3.42,7.43v63.44h-38.87V49.97h30.07l7.17,14.11c26.37-9.02,57.61-17.58,83.51-17.58,27.53,0,40.95,11.57,40.95,38.4ZM718.63,108.26c0-47.66,16.88-61.77,72.64-61.77,23.59,0,47.66,1.39,74.72,4.17l1.39,32.15c-34.97-4.62-61.78-6.31-101.3-6.46-3.79-.01-6.27,2.44-6.27,10.19v43.46c0,7.75,2.47,10.2,6.26,10.18,41.46-.17,68.1-2.09,102.92-7.16l-1.38,32.15c-30.31,3.24-50.9,4.86-76.34,4.86-55.75,0-72.64-14.12-72.64-61.77ZM1051.03,84.9v81.66h-38.86v-74.51c0-10.27-3.43-13.43-8.43-13.01-20.96,1.74-44.47,7.06-70.39,16.04-3.43,1.19-5.16,3.72-5.16,11.14v60.34h-38.86V13.84l38.86-4.59v54.37c25.91-9.02,56.68-17.12,81.89-17.12,27.53,0,40.95,11.57,40.95,38.4ZM1239.7,107.34c0,43.26-14.12,59.22-59.68,59.22h-68.93v46.3l-38.87,4.59V49.97h29.38l6.93,10.87c28.46-8.33,58.53-14.34,81.2-14.34,36.56,0,49.97,16.66,49.97,60.84ZM1198.52,125.19v-36.47c0-8.15-2.61-10.78-6.59-10.69-27.47.63-55.15,5.1-80.85,11.95v45.81h76.84c8.06,0,10.6-2.54,10.6-10.6ZM1561.14,4.59l38.86-4.59v166.56h-29.37l-6.95-10.88c-28.45,8.33-58.52,14.35-81.2,14.35-36.54,0-49.96-16.66-49.96-60.84s14.11-59.22,59.68-59.22h68.93V4.59ZM1481.61,138.46c27.03-.74,54.24-5.18,79.53-11.92v-45.8h-74.72c-9.67,0-12.72,3.05-12.72,12.72v32.2c0,9.78,3.13,12.94,7.91,12.81Z"/>
</svg>