<?xml version="1.0" encoding="UTF-8"?>
<svg id="T2_Icons" data-name="T2 Icons" xmlns="http://www.w3.org/2000/svg" viewBox="0 0 256 256">
  <defs>
    <style>
      .cls-1 {
        fill: #221c26;
      }
    </style>
  </defs>
  <path class="cls-1" d="M256,117.89c0-.05-.02-.1-.03-.15,0-.05-.01-.09-.02-.13-.01-.05-.04-.1-.06-.15-.02-.04-.03-.08-.05-.12-.02-.05-.05-.09-.08-.13-.02-.04-.04-.07-.07-.11-.03-.04-.07-.08-.1-.11-.03-.03-.06-.07-.09-.09-.04-.03-.08-.06-.12-.09-.04-.03-.07-.05-.11-.08-.04-.03-.09-.04-.14-.06-.04-.02-.08-.04-.13-.06-.05-.02-.1-.02-.15-.04-.04-.01-.09-.03-.13-.03l-92.6-12.66L107.03,28.32c-.25-.34-.64-.56-1.06-.6-.43-.03-.85.11-1.15.4L.46,127.17c-.56.53-.62,1.39-.14,2l60.11,75.89,2.85,9.42c.66,2.13,2.51,3.72,4.71,4.04l80.67,12.26c.64.09,1.28.14,1.92.14,3.6,0,7.1-1.45,9.65-4.05l91.1-92.94c1.99-2.03,3.29-4.7,3.67-7.53l1-8.23s0-.09,0-.14c0-.05,0-.1,0-.15ZM168.65,191.21l24.03-23.91,9.56,1.29-24.03,23.9-9.57-1.29ZM228.06,142.93l-24.04,23.92-9.56-1.29,24.05-23.92,9.56,1.3ZM166.19,190.88l-17.13-2.31,49.86-49.61,17.12,2.33-49.85,49.59ZM230.03,141.2l-31.34-4.26c-.3-.04-.61.06-.83.28l-51.62,51.37c-.27.27-.36.66-.24,1.02.12.36.43.61.81.66l30.34,4.08-19.95,20.04c-1.49,1.5-3.62,2.21-5.71,1.91l-87.6-12.64,97.33-96.93,90.78,12.41-21.95,22.05ZM105.63,31.43l54.01,74.07-97.43,97.03L3.49,128.39,105.63,31.43ZM149.09,227.85l-80.67-12.26c-1.08-.16-1.99-.93-2.31-1.97l-2.41-7.98,87.49,12.62c.41.06.82.09,1.23.09.5,0,1-.05,1.49-.14l-1.46,9.57c-1.1.2-2.23.24-3.36.07ZM249.2,131.86l-91.1,92.94c-1.02,1.04-2.24,1.83-3.56,2.36l1.47-9.61c.95-.43,1.83-1.02,2.58-1.77l94.04-94.48-.57,4.72c-.29,2.19-1.31,4.26-2.85,5.83Z"/>
  <path class="cls-1" d="M87.86,196.25c.47-.47.64-1.16.42-1.79-.21-.64-.76-1.09-1.42-1.18l-7.2-.97c-.53-.07-1.08.11-1.46.49l-6.05,6.02c-.47.47-.64,1.16-.42,1.8s.76,1.08,1.42,1.17l7.19.97c.08.01.15.02.23.02.46,0,.91-.18,1.24-.51l6.05-6.02h0ZM86.64,195.02s0,0,0,0l-6.06,6.03-7.2-1,6.06-6.03,7.21.99s0,0,0,0Z"/>
  <path class="cls-1" d="M84.89,190.11l7.19.97c.08.01.15.02.23.02.46,0,.91-.18,1.24-.51l6.05-6.02h0c.47-.47.64-1.16.42-1.8s-.76-1.08-1.42-1.17l-7.19-.97c-.54-.08-1.08.11-1.47.49l-6.05,6.03c-.47.47-.64,1.16-.42,1.8s.76,1.08,1.42,1.17ZM91.17,182.34l7.21.99s0,0,0,0l-6.06,6.03-7.2-1,6.07-6.03Z"/>
  <path class="cls-1" d="M96.63,178.42l7.19.97c.08.01.15.02.23.02.46,0,.91-.18,1.24-.51l6.05-6.03h0c.47-.47.64-1.16.42-1.8s-.76-1.08-1.42-1.17l-7.19-.97c-.53-.07-1.08.11-1.47.49l-6.05,6.03c-.47.47-.64,1.16-.42,1.8s.76,1.08,1.42,1.17ZM102.92,170.65l7.21.99s0,0,0,0l-6.07,6.03-7.2-1,6.07-6.03Z"/>
  <path class="cls-1" d="M108.37,166.73l7.19.97c.08.01.15.02.23.02.46,0,.91-.18,1.24-.51l6.05-6.03h0c.47-.47.64-1.16.42-1.8s-.76-1.08-1.42-1.17l-7.19-.97c-.54-.07-1.08.11-1.47.49l-6.06,6.03c-.47.47-.64,1.16-.42,1.8s.76,1.08,1.42,1.17ZM114.66,158.95l7.21,1s0,0,0,0l-6.07,6.03-7.2-1,6.07-6.03Z"/>
  <path class="cls-1" d="M120.12,155.03l7.19.97c.08.01.15.02.23.02.46,0,.91-.18,1.24-.51l6.06-6.03h0c.47-.47.64-1.16.42-1.8-.21-.64-.76-1.08-1.42-1.17l-7.19-.97c-.54-.07-1.09.11-1.47.49l-6.06,6.03c-.47.47-.64,1.16-.42,1.8s.76,1.08,1.42,1.17ZM126.41,147.25l7.21,1s0,0,0,0l-6.07,6.04-7.2-1,6.07-6.04Z"/>
  <path class="cls-1" d="M131.86,143.33l7.19.98c.08.01.15.02.23.02.46,0,.91-.18,1.24-.51l6.06-6.03c.47-.47.64-1.16.42-1.79-.21-.64-.76-1.08-1.42-1.18l-7.19-.98c-.54-.07-1.09.11-1.47.49l-6.06,6.03c-.47.47-.64,1.16-.42,1.79.21.64.76,1.08,1.42,1.18ZM138.16,135.55l7.21,1s0,0,0,0l-6.07,6.04-7.2-1.01,6.08-6.04Z"/>
  <path class="cls-1" d="M143.62,131.63l7.19.98c.08.01.16.02.23.02.46,0,.91-.18,1.24-.51l6.06-6.04c.47-.47.64-1.16.42-1.79-.21-.63-.76-1.08-1.42-1.18l-7.19-.98c-.54-.07-1.09.11-1.47.49l-6.06,6.04c-.47.47-.64,1.16-.42,1.79s.76,1.08,1.42,1.17ZM149.92,123.84l7.2,1s0,0,0,0l-6.08,6.04-7.2-1.01,6.08-6.04Z"/>
  <path class="cls-1" d="M155.37,119.92l7.19.98c.08.01.15.02.23.02.46,0,.91-.18,1.24-.51l6.06-6.04c.47-.47.64-1.16.42-1.79-.21-.63-.76-1.08-1.42-1.18l-7.19-.98c-.54-.08-1.08.11-1.47.49l-6.07,6.04c-.47.47-.64,1.16-.42,1.8s.76,1.08,1.42,1.17ZM161.68,112.13l7.2,1s0,0,0,0l-6.08,6.04-7.2-1.01,6.08-6.04Z"/>
  <path class="cls-1" d="M101.48,198.08c.47-.47.64-1.16.42-1.8s-.76-1.08-1.42-1.17l-7.19-.97c-.54-.07-1.08.11-1.47.49l-6.05,6.02c-.47.47-.64,1.16-.42,1.8.21.63.76,1.08,1.42,1.17l7.19.96c.08.01.15.02.22.02.46,0,.91-.18,1.24-.51l6.05-6.02h0ZM100.26,196.86l-6.06,6.02-7.2-.99,6.06-6.03,7.2.99s0,0,0,0Z"/>
  <path class="cls-1" d="M103.56,182.95l-6.05,6.02c-.48.47-.64,1.16-.42,1.8.21.64.76,1.09,1.42,1.18l7.19.97c.08.01.15.02.23.02.46,0,.91-.18,1.24-.51l6.05-6.02c.47-.47.64-1.16.42-1.8-.21-.64-.76-1.08-1.42-1.18l-7.19-.97c-.53-.07-1.08.11-1.47.49ZM111.99,185.17l-6.06,6.03-7.2-1,6.06-6.03,7.2.99s0,0,0,0Z"/>
  <path class="cls-1" d="M115.3,171.26l-6.05,6.03c-.47.47-.64,1.16-.42,1.8s.76,1.08,1.42,1.17l7.19.97c.08.01.15.02.23.02.46,0,.91-.18,1.24-.51l6.05-6.02h0c.47-.47.64-1.16.42-1.8-.21-.64-.76-1.08-1.42-1.17l-7.19-.97c-.53-.08-1.08.11-1.47.49ZM123.73,173.48l-6.07,6.03-7.2-1,6.07-6.03,7.2.99s0,0,0,0Z"/>
  <path class="cls-1" d="M127.05,159.57l-6.05,6.03c-.47.47-.64,1.16-.42,1.79.21.64.76,1.08,1.42,1.18l7.18.97c.08.01.15.02.23.02.46,0,.91-.18,1.24-.51l6.05-6.03c.47-.47.64-1.16.42-1.79-.21-.64-.76-1.09-1.42-1.18l-7.18-.97c-.54-.08-1.08.11-1.47.49ZM135.48,161.79l-6.07,6.03-7.2-1,6.07-6.03,7.2.99s0,0,0,0Z"/>
  <path class="cls-1" d="M138.79,147.88l-6.06,6.03c-.47.47-.64,1.16-.42,1.79.21.64.76,1.08,1.42,1.18l7.18.97c.08.01.15.02.23.02.46,0,.91-.18,1.24-.51l6.06-6.03c.47-.47.64-1.16.42-1.79-.21-.64-.76-1.08-1.42-1.18l-7.18-.97c-.54-.07-1.08.11-1.47.49ZM147.22,150.1l-6.07,6.03-7.19-1,6.07-6.03,7.2,1s0,0,0,0Z"/>
  <path class="cls-1" d="M150.54,136.18l-6.06,6.03c-.47.47-.64,1.16-.42,1.79.21.64.76,1.08,1.42,1.18l7.18.97c.08.01.15.02.23.02.46,0,.91-.18,1.24-.51l6.06-6.03h0c.47-.47.64-1.16.42-1.8s-.76-1.08-1.42-1.17l-7.18-.98c-.54-.07-1.08.11-1.47.49ZM158.97,138.41l-6.07,6.04-7.19-1,6.07-6.04,7.2,1s0,0,0,0Z"/>
  <path class="cls-1" d="M157.23,133.48l7.18.98c.08.01.15.02.23.02.46,0,.91-.18,1.24-.51l6.06-6.03c.47-.47.64-1.16.42-1.79-.21-.64-.76-1.08-1.42-1.18l-7.18-.98c-.54-.07-1.09.11-1.47.49l-6.06,6.03c-.47.47-.64,1.16-.42,1.8.21.63.76,1.08,1.42,1.17ZM163.53,125.7l7.2,1s0,0,0,0l-6.07,6.04-7.19-1.01,6.08-6.04Z"/>
  <path class="cls-1" d="M167.57,120.6c.21.63.76,1.08,1.42,1.18l7.18.98c.08.01.16.02.24.02.46,0,.91-.18,1.24-.51l6.06-6.04c.47-.47.64-1.16.42-1.79-.21-.63-.76-1.08-1.42-1.17l-7.18-.98c-.54-.08-1.08.11-1.47.49l-6.06,6.04c-.47.47-.64,1.16-.42,1.79ZM175.29,113.99l7.2,1s0,0,0,0l-6.08,6.04-7.19-1.01,6.08-6.04Z"/>
  <path class="cls-1" d="M115.09,199.91c.47-.47.64-1.16.42-1.8s-.76-1.08-1.42-1.17l-7.18-.96c-.53-.07-1.08.11-1.47.49l-6.04,6.02c-.48.47-.64,1.16-.42,1.8s.76,1.08,1.42,1.17l7.18.96c.08.01.15.02.23.02.46,0,.91-.18,1.24-.51l6.04-6.02h0ZM113.87,198.68l-6.06,6.02-7.19-.99,6.06-6.02,7.2.99s0,0,0,0Z"/>
  <path class="cls-1" d="M112.13,193.78l7.18.97c.08.01.15.02.23.02.46,0,.91-.18,1.24-.51l6.05-6.02h0c.47-.47.64-1.16.42-1.8s-.76-1.08-1.42-1.17l-7.18-.97c-.53-.07-1.08.11-1.47.49l-6.05,6.02c-.47.47-.64,1.16-.42,1.8s.76,1.08,1.42,1.17ZM118.41,186.01l7.2.99s0,0,0,0l-6.06,6.02-7.19-1,6.06-6.03Z"/>
  <path class="cls-1" d="M131.28,183.08c.46,0,.91-.18,1.24-.51l6.05-6.02h0c.47-.47.64-1.16.42-1.8-.21-.64-.76-1.08-1.42-1.18l-7.18-.97c-.53-.07-1.08.11-1.47.49l-6.05,6.02c-.47.47-.64,1.16-.42,1.8s.76,1.08,1.42,1.17l7.18.97c.08.01.15.02.23.02ZM130.15,174.32l7.2.99s0,0,0,0l-6.06,6.03-7.19-1,6.06-6.03Z"/>
  <path class="cls-1" d="M143.02,171.39c.46,0,.91-.18,1.24-.51l6.05-6.02c.47-.47.64-1.16.42-1.79-.21-.64-.76-1.08-1.42-1.18l-7.18-.97c-.53-.07-1.08.11-1.47.49l-6.05,6.03c-.47.47-.64,1.16-.42,1.79.21.64.76,1.09,1.42,1.18l7.18.97c.08.01.15.02.23.02ZM141.89,162.63l7.19.99s0,0,0,0l-6.07,6.03-7.19-1,6.07-6.03Z"/>
  <path class="cls-1" d="M154.76,159.71c.46,0,.91-.18,1.24-.51l6.05-6.03c.47-.47.64-1.16.42-1.79-.21-.64-.76-1.08-1.42-1.18l-7.18-.97c-.53-.07-1.08.11-1.47.49l-6.05,6.03c-.47.47-.64,1.16-.42,1.79.21.64.76,1.08,1.42,1.18l7.18.97c.08.01.15.02.23.02ZM153.64,150.94l7.19,1s0,0,0,0l-6.07,6.03-7.19-1,6.07-6.03Z"/>
  <path class="cls-1" d="M166.5,148.02c.46,0,.91-.18,1.23-.51l6.06-6.03c.47-.47.64-1.16.42-1.79-.21-.64-.76-1.08-1.42-1.18l-7.17-.97c-.54-.07-1.09.11-1.47.49l-6.06,6.03c-.47.47-.64,1.16-.42,1.79s.76,1.08,1.42,1.17l7.17.97c.08.01.16.02.24.02ZM165.39,139.25l7.19,1s0,0,0,0l-6.07,6.03-7.19-1,6.07-6.03Z"/>
  <path class="cls-1" d="M178.25,136.32c.46,0,.91-.18,1.24-.51l6.06-6.03c.47-.47.64-1.16.42-1.79-.21-.64-.76-1.08-1.42-1.18l-7.18-.98c-.54-.08-1.08.11-1.47.49l-6.06,6.03c-.47.47-.64,1.16-.42,1.79.21.64.76,1.08,1.42,1.18l7.18.98c.08.01.15.02.23.02ZM177.14,127.55l7.19,1s0,0,0,0l-6.07,6.04-7.19-1.01,6.07-6.04Z"/>
  <path class="cls-1" d="M181.17,122.46c.21.64.76,1.08,1.42,1.18l7.17.98c.08.01.16.02.24.02.46,0,.91-.18,1.23-.51l6.06-6.03c.47-.47.64-1.16.42-1.79-.21-.63-.76-1.08-1.42-1.18l-7.18-.98c-.54-.08-1.08.11-1.47.49l-6.06,6.03c-.47.47-.64,1.16-.42,1.79ZM188.89,115.85l7.19,1s0,0,0,0l-6.08,6.04-7.19-1.01,6.08-6.04Z"/>
  <path class="cls-1" d="M127.69,198.77l-7.17-.96c-.53-.07-1.08.11-1.47.49l-6.04,6.01c-.48.47-.64,1.16-.42,1.8s.76,1.08,1.42,1.17l7.17.96c.08.01.15.02.23.02.46,0,.91-.18,1.24-.51l6.04-6.01c.47-.47.64-1.16.42-1.8-.21-.64-.76-1.08-1.42-1.17ZM127.47,200.51l-6.06,6.02-7.18-.99,6.06-6.02,7.19.98s0,0,0,0Z"/>
  <path class="cls-1" d="M139.43,187.09l-7.17-.97c-.53-.07-1.08.11-1.47.49l-6.05,6.02c-.47.47-.64,1.16-.42,1.8.21.63.76,1.08,1.42,1.17l7.17.96c.08.01.15.02.23.02.46,0,.91-.18,1.24-.51l6.04-6.02c.47-.47.64-1.16.42-1.8-.21-.64-.76-1.08-1.42-1.17ZM139.2,188.84l-6.06,6.02-7.18-1,6.06-6.02,7.19.99s0,0,0,0Z"/>
  <path class="cls-1" d="M187.44,140.5l-7.55-1.03c-.96-.13-1.94.2-2.63.88l-41.55,41.35c-.33.33-.45.81-.3,1.25.15.44.53.76.99.82l7.56,1.02c.14.02.27.03.41.03.82,0,1.63-.33,2.21-.91l41.54-41.35c.33-.33.44-.81.3-1.25-.15-.44-.53-.76-.99-.82ZM145.38,182.7c-.31.31-.74.46-1.17.39l-6.53-.88,40.82-40.63c.31-.31.74-.45,1.17-.39l6.53.89-40.81,40.62ZM186.92,141.35h0s0,0,0,0h0Z"/>
  <path class="cls-1" d="M198.14,128.67l-7.17-.98c-.54-.08-1.08.11-1.47.49l-6.06,6.03c-.47.47-.64,1.16-.42,1.79.21.64.76,1.08,1.42,1.18l7.17.97c.08.01.16.02.23.02.46,0,.91-.18,1.24-.51l6.06-6.03c.47-.47.64-1.16.42-1.79-.21-.64-.76-1.09-1.42-1.18ZM197.91,130.41l-6.07,6.03-7.18-1,6.07-6.03,7.19,1s0,0,0,0Z"/>
  <path class="cls-1" d="M211.31,118.15c-.21-.63-.76-1.08-1.42-1.18l-7.17-.98c-.53-.07-1.09.11-1.47.49l-6.06,6.03c-.47.47-.64,1.16-.42,1.79.21.63.76,1.08,1.42,1.18l7.17.98c.08.01.16.02.24.02.46,0,.91-.18,1.23-.51l6.06-6.03c.47-.47.64-1.16.42-1.79ZM209.66,118.72l-6.07,6.03-7.18-1.01,6.08-6.04,7.18,1s0,0,0,0Z"/>
</svg>