<?xml version="1.0" encoding="UTF-8"?>
<svg id="T2_Icons" data-name="T2 Icons" xmlns="http://www.w3.org/2000/svg" viewBox="0 0 256 256">
  <defs>
    <style>
      .cls-1 {
        fill: #221c26;
      }
    </style>
  </defs>
  <path class="cls-1" d="M138.07,93.84c-.41-.5-1.09-.5-1.5,0-.42.49-.42,1.29,0,1.79.41.5,1.09.5,1.5,0,.42-.49.42-1.29,0-1.79Z"/>
  <path class="cls-1" d="M140.7,96.99c-.42-.5-1.09-.5-1.51,0-.42.49-.42,1.29,0,1.79.42.5,1.09.5,1.51,0,.42-.49.42-1.3,0-1.79Z"/>
  <path class="cls-1" d="M143.34,100.15c-.42-.5-1.09-.5-1.51-.01-.42.49-.42,1.3,0,1.79.42.5,1.09.5,1.51.01.42-.49.42-1.3,0-1.8Z"/>
  <path class="cls-1" d="M145.99,103.32c-.42-.5-1.1-.51-1.52-.01-.42.49-.42,1.3,0,1.8.42.5,1.1.51,1.52.01.42-.49.42-1.3,0-1.8Z"/>
  <path class="cls-1" d="M148.65,108.3c.42-.49.42-1.3,0-1.8-.42-.5-1.1-.51-1.52-.02-.42.49-.42,1.3,0,1.8.42.5,1.1.51,1.52.02Z"/>
  <path class="cls-1" d="M151.32,111.49c.42-.49.42-1.3,0-1.8-.42-.5-1.1-.51-1.53-.02-.42.49-.42,1.3,0,1.8.42.5,1.1.51,1.53.02Z"/>
  <path class="cls-1" d="M133.18,97.83c-.41.49-.42,1.29,0,1.79.41.5,1.08.5,1.5.01.42-.49.42-1.29,0-1.79-.41-.5-1.08-.5-1.5,0Z"/>
  <path class="cls-1" d="M135.8,100.98c-.42.49-.42,1.29,0,1.79.41.5,1.09.5,1.5.01.42-.49.42-1.29,0-1.79-.41-.5-1.09-.5-1.5-.01Z"/>
  <path class="cls-1" d="M138.43,104.14c-.42.49-.42,1.29,0,1.79.42.5,1.09.51,1.51.02.42-.49.42-1.29,0-1.79-.42-.5-1.09-.5-1.51-.01Z"/>
  <path class="cls-1" d="M141.07,107.31c-.42.49-.42,1.29,0,1.79.42.5,1.09.51,1.51.02.42-.49.42-1.29,0-1.8-.42-.5-1.09-.51-1.51-.02Z"/>
  <path class="cls-1" d="M143.71,110.48c-.42.49-.42,1.29,0,1.8.42.5,1.1.51,1.52.02.42-.49.42-1.3,0-1.8-.42-.5-1.1-.51-1.52-.02Z"/>
  <path class="cls-1" d="M147.89,113.69c-.42-.5-1.1-.51-1.52-.02-.42.49-.42,1.3,0,1.8.42.5,1.1.51,1.52.02.42-.49.42-1.3,0-1.8Z"/>
  <path class="cls-1" d="M146.64,126.68c.19.23.47.36.76.36h0c.29,0,.57-.13.76-.35l13.07-15.15c.32-.37.32-.92,0-1.3l-23.29-27.72c-.19-.23-.47-.36-.77-.36h0c-.29,0-.58.13-.77.36l-12.75,15.14c-.31.37-.31.91,0,1.28l22.97,27.73ZM137.19,84.72l21.97,26.16-11.74,13.61-21.68-26.18,11.44-13.59Z"/>
  <path class="cls-1" d="M95.92,199.06c-1.55-.04-3.04.64-4.13,1.9h0c-2.25,2.61-2.28,6.89-.06,9.75,1.14,1.46,2.74,2.33,4.39,2.38.05,0,.1,0,.15,0,1.51,0,2.92-.67,3.99-1.89,2.24-2.57,2.27-6.96.06-9.79-1.14-1.46-2.74-2.32-4.39-2.36ZM98.74,209.89c-.7.8-1.6,1.21-2.57,1.2-1.07-.03-2.09-.6-2.87-1.61-1.63-2.1-1.63-5.34,0-7.22.7-.81,1.62-1.21,2.57-1.21,1.07.03,2.09.59,2.87,1.59,1.62,2.07,1.63,5.39,0,7.24Z"/>
  <path class="cls-1" d="M108.87,184.19c-1.55-.02-3.04.64-4.13,1.9-2.25,2.61-2.28,6.89-.06,9.75,1.14,1.46,2.74,2.33,4.39,2.38.05,0,.1,0,.15,0,1.51,0,2.92-.67,3.99-1.89,2.24-2.57,2.27-6.96.06-9.79-1.14-1.46-2.74-2.32-4.39-2.36ZM111.7,195.02c-.7.8-1.6,1.23-2.57,1.2-1.07-.03-2.09-.6-2.87-1.61-1.63-2.1-1.63-5.34,0-7.22.68-.79,1.56-1.21,2.5-1.21.02,0,.05,0,.08,0,1.07.03,2.09.59,2.87,1.59,1.62,2.07,1.63,5.39.01,7.24Z"/>
  <path class="cls-1" d="M241.73,97.27s.04-.09.06-.14c.02-.04.04-.09.05-.14.01-.04.02-.09.03-.14,0-.05.02-.1.03-.15,0-.05,0-.09,0-.14s0-.1,0-.14-.02-.1-.02-.14c0-.05-.02-.09-.03-.14-.01-.05-.03-.09-.05-.13-.02-.05-.04-.09-.06-.14-.02-.04-.05-.08-.07-.11-.03-.05-.06-.09-.1-.14,0-.01-.01-.02-.02-.03l-8.39-9.75c-.25-.29-.6-.47-.97-.51l-13.35-1.46-15.15-17.72s-.03-.03-.04-.04l36.83-44.56c.11-.13.18-.28.21-.44.32-1.64-.06-3.22-1.12-4.58-1.26-1.61-3.4-2.73-5.45-2.84-.31,0-.62.12-.82.36l-36.44,44.09-4.72-5.52,36.39-44.03c.11-.13.18-.28.21-.44.32-1.64-.06-3.22-1.12-4.58-1.26-1.61-3.4-2.73-5.45-2.84-.33-.01-.62.12-.82.36l-32.35,39.14-.43-5.76c-.02-.32-.15-.62-.36-.87l-7.92-9.21c-.38-.44-.97-.62-1.53-.47l-38.13,10.29s0,0-.01,0c-.06.02-.13.05-.19.07-.03.01-.06.02-.09.04-.04.02-.08.05-.13.08-.04.03-.08.05-.12.08-.03.02-.05.05-.08.07-.05.04-.1.09-.14.13,0,0,0,0-.01.01L30.44,167.08c-.44.54-.46,1.31-.04,1.86l7.03,9.23c.23.3.57.51.95.57l11.38,1.87,4.71,6.15-39.37,47.63c-.25.31-.42.66-.48,1.02-.41,2.52,2.62,5.69,5.51,6.74.25.09.51.14.77.14.66,0,1.3-.29,1.73-.81l38.28-46.32,4.46,5.83-38.32,46.36c-.25.31-.42.66-.48,1.03-.41,2.52,2.62,5.69,5.51,6.74.25.09.51.13.77.13.66,0,1.3-.29,1.73-.81l37.23-45.04,4.08,5.33,1.04,14.94c.02.29.13.57.3.8l7.42,9.75c.08.1.17.19.27.27.01.01.03.02.05.03.11.08.22.14.34.18.04.01.07.03.11.04.14.04.28.07.43.07,0,0,0,0,0,0,0,0,0,0,0,0,0,0,0,0,0,0,0,0,0,0,0,0,.12,0,.23-.01.35-.04l40.07-9.8c.3-.07.58-.24.78-.48l114.49-132.94s.01-.02.02-.03c.04-.04.06-.09.09-.13.03-.04.05-.08.07-.12ZM238.08,96.16l-35.46,9.57-6.94-8.07,35.09-9.47.49.05,6.81,7.92ZM217.28,86.54c.19.12.4.21.63.24l7.4.81-31.51,8.5-8.48-.93,31.96-8.63ZM234.48,15.74c1.33.21,2.69.98,3.5,2.02.45.58.94,1.51.78,2.73l-53.32,64.51c-.06.08-.17.11-.27.07-2.37-.86-4.42-3.33-4.17-4.61L234.48,15.74ZM194.9,60.49l-15.44,18.68c-.25.31-.42.66-.48,1.03-.41,2.52,2.62,5.69,5.51,6.74.25.09.51.14.77.14.66,0,1.29-.29,1.73-.81l14.72-17.81,14.05,16.43-35.46,9.57-28.4-33.23,25.41-6.86-9.79,11.85c-.25.31-.42.66-.48,1.02-.41,2.52,2.62,5.69,5.51,6.74.25.09.51.14.77.14.66,0,1.3-.29,1.73-.81l15.15-18.33,4.72,5.52ZM222.53,2.78c1.33.21,2.69.98,3.5,2.02.45.58.94,1.51.78,2.72l-53.32,64.5c-.06.08-.17.11-.27.07-2.37-.86-4.42-3.33-4.17-4.61L222.53,2.78ZM179.5,51.7l-28.5,7.69-1.03-13.77,35.68-9.63.49,6.64c.02.27.13.49.26.7l-6.91,8.36ZM184.73,34.18l-35.46,9.57-6.11-7.1,35.46-9.57,6.11,7.1ZM21.09,240.22c-.06.08-.18.11-.27.07-2.37-.86-4.42-3.33-4.17-4.61l39.08-47.28,3.94,5.15-38.58,46.67ZM33.04,253.18c-.06.08-.17.11-.27.07-2.37-.86-4.42-3.33-4.17-4.61l38.02-46,3.94,5.15-37.52,45.4ZM78.85,214.08c-.02-.29-.13-.57-.31-.81l-26.76-34.95c-.23-.3-.57-.51-.95-.57l-11.38-1.87-5.94-7.81L141.35,37.61l6.6,7.67,1.15,15.47s.02.08.03.11c0,.02,0,.05,0,.07,0,.02.02.04.03.06.02.06.04.11.07.16.02.04.05.09.08.13.01.01.02.03.03.05l29.84,34.91s.05.03.07.05c.05.05.11.1.17.14.04.02.08.04.12.06.07.03.14.05.21.06.03,0,.05.02.08.03l13.55,1.49,7.57,8.79-114.71,130.5-6.35-8.34-1.04-14.94ZM125.1,228.17l-35.83,8.76,113.55-129.19,33.84-9.13-111.57,129.55Z"/>
  <path class="cls-1" d="M99.41,139.41c.24,3.33,1.39,6.57,3.46,9.09,2.22,2.7,5.17,4.23,8.35,4.38l4.75,17.76c.07.28.27.51.53.64.14.07.29.1.44.1.13,0,.27-.03.39-.08l19.22-8.13c.46-.19.71-.7.58-1.18l-6.18-23.09c-.07-.28-.27-.51-.53-.64-.26-.13-.56-.13-.83-.02l-5.11,2.16c.8-4.76-.27-9.84-3.25-13.47-2.33-2.84-5.47-4.4-8.84-4.41h-.02c-2.28,0-4.47.72-6.41,2.05l-.87-15.14c-.02-.38-.26-.71-.6-.86-.35-.15-.75-.09-1.04.16l-22.29,18.95c-.25.21-.38.53-.35.86.03.33.22.62.51.78l18.09,10.11ZM111.95,147.87l9.41-3.98c-.51,1.11-1.15,2.16-1.93,3.11-1.84,2.22-4.18,3.56-6.68,3.85l-.8-2.98ZM129.31,140.52l5.66,21.14-17.36,7.35-4.34-16.22c2.9-.41,5.59-1.97,7.7-4.52,1.33-1.6,2.29-3.47,2.92-5.46l5.42-2.3ZM112.37,124.51h.02c2.76,0,5.35,1.31,7.29,3.68,2.89,3.52,3.74,8.6,2.57,13.14l-11.89,5.03c-.46.19-.71.7-.58,1.18l.88,3.3c-2.37-.29-4.57-1.55-6.26-3.61-1.54-1.87-2.49-4.19-2.88-6.63l3.93,2.2c.15.08.32.13.49.13.18,0,.37-.05.53-.15.31-.19.49-.54.47-.91l-.85-14.89c1.84-1.6,4.01-2.47,6.27-2.47ZM104.21,129.04l.64,11.12-3.51-1.96c-.02-3.26.94-6.54,2.87-9.16ZM103.21,111.54l.84,14.6c-.31.32-.62.65-.91,1-2.3,2.78-3.54,6.35-3.74,9.97l-15.85-8.86,19.66-16.71Z"/>
</svg>