<?xml version="1.0" encoding="UTF-8"?>
<svg id="T2_Icons" data-name="T2 Icons" xmlns="http://www.w3.org/2000/svg" viewBox="0 0 256 256">
  <defs>
    <style>
      .cls-1 {
        fill: none;
      }

      .cls-2 {
        fill: #221c26;
      }
    </style>
  </defs>
  <path class="cls-1" d="M127.45,159.88c-.54,0-.95.26-1.21.49-.7.62-1.11,1.72-1.11,2.95,0,2.13,1.25,4.08,2.73,4.25.64.08,1.12-.22,1.41-.48.7-.62,1.11-1.72,1.11-2.95,0-2.13-1.25-4.08-2.73-4.25-.07,0-.14-.01-.21-.01Z"/>
  <path class="cls-2" d="M125.09,159.07c-1.08.96-1.69,2.5-1.69,4.25,0,3.07,1.87,5.69,4.26,5.97.14.02.27.02.4.02.86,0,1.68-.32,2.36-.92,1.08-.96,1.69-2.5,1.69-4.25,0-3.07-1.87-5.69-4.26-5.97-.99-.11-1.98.2-2.77.9ZM130.38,164.14c0,1.23-.42,2.33-1.11,2.95-.29.26-.77.56-1.41.48-1.48-.17-2.73-2.12-2.73-4.25,0-1.23.42-2.33,1.11-2.95.26-.23.67-.49,1.21-.49.07,0,.13,0,.21.01,1.48.17,2.73,2.12,2.73,4.25Z"/>
  <path class="cls-1" d="M74.09,153.93c-.54,0-.95.26-1.21.49-.7.62-1.11,1.72-1.11,2.95,0,2.13,1.25,4.08,2.73,4.25.64.08,1.12-.22,1.41-.48.7-.62,1.11-1.72,1.11-2.95,0-2.13-1.25-4.08-2.73-4.25-.07,0-.14-.01-.21-.01Z"/>
  <path class="cls-2" d="M71.73,153.13c-1.08.96-1.69,2.5-1.69,4.25,0,3.07,1.87,5.69,4.26,5.97.14.02.27.02.4.02.86,0,1.68-.32,2.36-.92,1.08-.96,1.69-2.5,1.69-4.25,0-3.07-1.87-5.69-4.26-5.97-.99-.11-1.98.2-2.77.9ZM77.02,158.2c0,1.23-.42,2.33-1.11,2.95-.29.26-.77.56-1.41.48-1.48-.17-2.73-2.12-2.73-4.25,0-1.23.42-2.33,1.11-2.95.26-.23.67-.49,1.21-.49.07,0,.13,0,.21.01,1.48.17,2.73,2.12,2.73,4.25Z"/>
  <path class="cls-1" d="M20.77,146.52c-.54,0-.95.26-1.21.49-.7.62-1.11,1.72-1.11,2.95,0,2.13,1.25,4.08,2.73,4.25.64.08,1.12-.22,1.41-.48.7-.62,1.11-1.72,1.11-2.95,0-2.13-1.25-4.08-2.73-4.25-.07,0-.14-.01-.21-.01Z"/>
  <path class="cls-2" d="M18.41,145.71c-1.08.96-1.69,2.5-1.69,4.25,0,3.07,1.87,5.69,4.26,5.97.14.02.27.02.4.02.86,0,1.68-.32,2.36-.92,1.08-.96,1.69-2.5,1.69-4.25,0-3.07-1.87-5.69-4.26-5.97-.99-.11-1.98.2-2.77.9ZM23.7,150.78c0,1.23-.42,2.33-1.11,2.95-.29.26-.77.55-1.41.48-1.48-.17-2.73-2.12-2.73-4.25,0-1.23.42-2.33,1.11-2.95.26-.23.67-.49,1.21-.49.07,0,.13,0,.21.01,1.48.17,2.73,2.12,2.73,4.25Z"/>
  <path class="cls-2" d="M250.31,94.93l-144.19-16.97c-5.47-.64-10.96-.33-16.32.92L6.67,98.31s-.06.02-.09.02c-3.88,1.17-6.16,3.88-6.57,7.83,0,.05,0,.1,0,.16v26.14c0,.05,0,.11,0,.16.27,2.54,1.63,5.64,6.41,6.28-1.31,2.85-2.01,6.11-2.01,9.69,0,11.99,7.4,22.61,16.49,23.68.51.06,1.01.09,1.51.09.7,0,1.39-.06,2.07-.17.03,0,.07-.01.1-.02,0,0,8.81-2.14,9.09-2.2,0,0,.02,0,.02,0,6.7-1.68,13.92-8.68,13.92-20.11,0-2.12-.24-4.19-.67-6.17l13.33,1.57c-1.64,3.08-2.54,6.72-2.54,10.76,0,11.99,7.4,22.61,16.49,23.68.51.06,1.01.09,1.51.09.7,0,1.39-.06,2.07-.17.03,0,.07-.01.1-.02,0,0,8.81-2.14,9.09-2.2,0,0,.02,0,.02,0,6.7-1.68,13.92-8.68,13.92-20.11,0-2.54-.36-5.01-.97-7.35l13.49,1.59c-1.54,3.02-2.37,6.54-2.37,10.44,0,11.99,7.4,22.61,16.49,23.68.51.06,1.01.09,1.51.09.7,0,1.39-.06,2.07-.17.03,0,.07-.01.1-.02,0,0,8.81-2.14,9.09-2.2,0,0,.02,0,.02,0,6.7-1.68,13.92-8.68,13.92-20.11,0-2.44-.33-4.8-.9-7.05,1.12.09,2.24.15,3.36.15,3.35,0,6.7-.39,9.99-1.15l38.16-8.92c2.86,6.79,8.15,11.77,14.22,12.48.51.06,1.01.09,1.51.09.7,0,1.39-.06,2.07-.17.03,0,.07-.01.1-.02,0,0,8.82-2.14,9.09-2.2h.02c6.63-1.66,13.74-8.54,13.9-19.74l4.64-1.08c.11-.03.21-.06.31-.11,3.51-1.71,5.28-4.6,5.12-8.31v-26.14c0-3.28-.91-5.33-5.6-6.08ZM252.95,126.49l-87.71,20.5c-1.53.36-3.08.62-4.63.78v-23.36c1.71-.17,3.41-.43,5.09-.83l87.25-21.18v24.09ZM2.96,107.48l149.69,16.89c1.39.15,2.78.22,4.17.22.6,0,1.21-.02,1.81-.05v23.36c-1.92.09-3.85.04-5.77-.16L2.96,131.62v-24.14ZM252.94,100.36l-87.7,21.29c-1.53.36-3.08.62-4.63.78v-4.54c2.02-.18,4.04-.49,6.03-.95l82.14-19.19,1.12.13c2.69.43,3,.96,3.03,2.49ZM90.48,81.77c5.02-1.18,10.17-1.46,15.3-.86l137.23,16.15-76.81,17.95c-4.69,1.1-9.5,1.37-14.29.8L14.17,99.6l76.31-17.83ZM7.39,101.19l1.11-.26,143.17,16.85c1.7.2,3.4.3,5.09.3.62,0,1.24-.03,1.86-.05v4.55c-1.92.09-3.84.04-5.77-.16L3.12,105.51c.5-2.2,1.88-3.59,4.28-4.32ZM27.76,168.35l-3.82.93c-.88.14-1.79.16-2.7.05-7.65-.9-13.87-10.2-13.87-20.74,0-3.5.78-6.65,2.2-9.31l23.71,2.79c1.25,3.04,1.98,6.49,1.98,10.09,0,7.27-3,13.44-7.51,16.19ZM44.65,149.85c0,9.83-6.05,15.83-11.67,17.23l.02.08c-.28.04-.62.11-1.03.19,3.25-3.6,5.27-9.05,5.27-15.19,0-3.47-.64-6.81-1.76-9.83l8.34.98c.53,2.08.83,4.28.83,6.54ZM81.08,175.76l-3.82.93c-.88.14-1.79.16-2.7.05-7.65-.9-13.87-10.2-13.87-20.74,0-3.98,1-7.5,2.82-10.37l22.56,2.66c1.58,3.32,2.51,7.21,2.51,11.29,0,7.27-3,13.44-7.51,16.19ZM97.98,157.26c0,9.83-6.05,15.83-11.67,17.23l.02.08c-.28.04-.62.11-1.03.19,3.25-3.6,5.27-9.05,5.27-15.19,0-3.93-.82-7.7-2.23-11.03l8.46,1c.74,2.42,1.18,5.02,1.18,7.72ZM134.44,181.7l-3.81.93c-.88.14-1.79.16-2.7.05-7.65-.9-13.87-10.2-13.87-20.74,0-3.84.92-7.25,2.61-10.06l22.94,2.7c1.47,3.24,2.35,7,2.35,10.94,0,7.27-3,13.44-7.51,16.19ZM139.67,180.44l.02.08c-.28.04-.62.11-1.03.19,3.26-3.6,5.27-9.05,5.27-15.19,0-3.79-.77-7.43-2.09-10.67l8.43.99c.67,2.32,1.07,4.8,1.07,7.37,0,9.83-6.05,15.83-11.67,17.23ZM151.96,153.05L7.16,136.01c-2.1-.21-3.32-.94-3.88-2.36l149.37,16.06c1.39.15,2.79.22,4.18.22.6,0,1.2-.02,1.8-.05v3.4c-2.22.1-4.45.03-6.67-.23ZM225.99,154.78l-3.82.93c-.88.14-1.79.16-2.7.05-4.9-.58-9.21-4.62-11.67-10.22l25.67-6c-.25,6.85-3.18,12.6-7.48,15.23ZM231.22,153.52v.06c-.25.04-.58.11-1,.2,3.16-3.51,5.14-8.76,5.24-14.69l7.39-1.73c-.43,9.19-6.22,14.81-11.63,16.16ZM249.63,132.73l-83.55,19.53c-1.81.42-3.64.72-5.47.89v-3.41c1.7-.17,3.4-.43,5.08-.83l87.18-20.37c-.26,1.86-1.31,3.22-3.24,4.2Z"/>
</svg>