<?xml version="1.0" encoding="UTF-8"?>
<svg id="T2_Icons" data-name="T2 Icons" xmlns="http://www.w3.org/2000/svg" viewBox="0 0 256 256">
  <defs>
    <style>
      .cls-1 {
        fill: #221c26;
      }
    </style>
  </defs>
  <path class="cls-1" d="M105.74,70.2l19.26,9.78c.14.07.29.11.45.11s.31-.04.45-.11l18.38-9.33c.33-.17.54-.51.54-.88s-.21-.71-.54-.88l-19.26-9.78c-.28-.14-.61-.14-.89,0l-9.19,4.67-9.19,4.67c-.33.17-.54.51-.54.88s.21.71.54.88ZM115.38,65.76l5.72,2.9.54.27-7.01,3.56-6.26-3.18,7.01-3.56ZM125.45,78l-8.64-4.39,7.45-3.79,8.74-4.44,8.64,4.39-16.2,8.23ZM130.83,64.27l-7.01,3.56-5.72-2.9-.54-.27,7.01-3.56,6.26,3.18Z"/>
  <path class="cls-1" d="M255.49,117.52l-8.93-7.81s0,0,0,0c-.1-.08-.2-.15-.31-.2-.01,0-.02-.01-.03-.02l-25.39-11.88v-6.3c0-.55-.3-1.06-.79-1.31l-53.16-28.04c-.43-.22-.93-.23-1.36-.01l-6.46,3.28-27.58-14.01c-2.18-1.11-4.78-1.11-6.96,0L9.74,109.5s-.01,0-.02.01c-.1.05-.19.11-.28.19,0,0,0,0,0,0l-8.93,7.81c-.32.28-.51.69-.51,1.12v21.17c0,1.73.96,3.28,2.5,4.07l121.56,61.73c1.24.63,2.59.94,3.95.94s2.71-.31,3.95-.94l121.56-61.74c1.54-.78,2.5-2.34,2.5-4.07v-21.17c0-.43-.18-.83-.51-1.12ZM10.64,112.6l113.88,57.84c.79.4,1.63.65,2.49.76v10.08L3.71,118.66l6.93-6.06ZM128.99,171.2c.86-.11,1.7-.36,2.49-.76l113.88-57.84,6.93,6.06-123.3,62.62v-10.08ZM166.63,65.17l23.29,12.29-22.32,11.57-24.11-12.52,23.14-11.34ZM216.62,91.54l-22.72,11.13-24.14-12.53,22.31-11.56,24.56,12.96ZM142.29,78.11l50.85,26.4v5.01l-50.85-26.4v-5.01ZM194.62,109.56v-5.04l23.24-11.39v5.04l-23.24,11.39ZM125.86,53.86c1.34-.68,2.94-.68,4.28,0l27.05,13.74-16.33,8s-.06.05-.09.07c-.05.03-.09.06-.14.1-.02.02-.04.03-.06.05-.04.04-.06.08-.09.13-.02.03-.05.05-.07.09,0,.01,0,.02-.01.04-.01.02-.02.04-.03.07-.02.05-.02.1-.03.16-.01.05-.03.1-.03.16,0,.01,0,.02,0,.04v7.24c0,.37.21.71.53.88l52.58,27.29s.08.03.13.05c.03,0,.05.02.08.03.08.02.17.03.25.03,0,0,0,0,0,0s0,0,0,0c0,0,0,0,0,0,.13,0,.26-.04.39-.09.01,0,.03,0,.04-.01l24.47-11.99,23.42,10.96-112.07,56.92c-1.34.68-2.94.68-4.28,0L13.69,110.83l112.17-56.97ZM3.84,141.23c-.54-.27-.87-.82-.87-1.42v-19.31l124.05,63v19.99c-.56-.1-1.1-.27-1.62-.53L3.84,141.23ZM252.16,141.23l-121.56,61.73c-.51.26-1.06.43-1.62.53v-19.99l124.05-63v19.31c0,.6-.33,1.15-.87,1.42Z"/>
  <path class="cls-1" d="M181.33,89.7l3.19,1.62c-.15.28-.23.58-.23.9,0,.81.54,1.55,1.48,2.03,1.36.69,3.42.76,4.93.21l4.02,2.04c.14.07.29.11.45.11s.31-.04.45-.11l8.2-4.17c.33-.17.54-.51.54-.88s-.21-.71-.54-.88l-13.38-6.8c-.28-.14-.61-.14-.89,0l-8.2,4.17c-.33.17-.54.51-.54.88s.21.71.54.88ZM189.98,85.76l11.2,5.69-6.02,3.06-3.98-2.02c-.14-.07-.29-.11-.45-.11s-.31.04-.45.11c-.96.49-2.66.49-3.62,0-.25-.13-.35-.24-.38-.25.03-.05.13-.16.38-.28.33-.17.54-.51.54-.88s-.21-.71-.54-.88l-2.7-1.37,6.02-3.06Z"/>
  <path class="cls-1" d="M155.89,77.47l10.97,5.57c.14.07.29.11.45.11s.31-.04.45-.11l6.81-3.46c1.79-.91,2.05-2.11,2.05-2.74s-.27-1.83-2.05-2.74l-3.66-1.86c-2.3-1.17-5.9-1.17-8.2,0l-6.81,3.46c-.33.17-.54.51-.54.88s.21.71.54.88ZM163.6,74.01c1.74-.88,4.67-.88,6.41,0l3.66,1.86c.72.36.97.75.97.97s-.25.61-.97.97l-6.37,3.23-8.79-4.46,5.08-2.58Z"/>
  <path class="cls-1" d="M72.4,102.99l31.26,8.25c.86,2.43,3.23,4.74,6.79,6.54,4.11,2.08,9.3,3.26,14.4,3.48l10.19,12.91c.19.24.48.38.78.38.04,0,.09,0,.13,0l31.77-4.17c.35-.05.66-.28.79-.61.13-.33.08-.71-.15-.99l-13.33-16.57c-.22-.27-.56-.4-.9-.36l-9.69,1.29c.08-.39.14-.79.14-1.2,0-3.2-2.65-6.37-7.3-8.69-7.37-3.67-18.15-4.47-25.65-2.15l-3.17-10.7c-.08-.26-.25-.47-.49-.59-.24-.12-.51-.15-.77-.07l-34.86,11.35c-.42.14-.69.53-.68.97s.31.82.74.93ZM124.61,117.79l15.9-2.12c-.62.51-1.37,1-2.25,1.43-3.31,1.63-7.78,2.36-12.41,2.26l-1.24-1.57ZM153.84,113.89l11.88,14.76-29.47,3.87-8.85-11.21c4.39-.08,8.57-.87,11.74-2.44,2.01-.99,3.48-2.22,4.39-3.61l10.31-1.38ZM121.17,101.76c5.29,0,10.88,1.11,15.22,3.28,3.95,1.97,6.22,4.49,6.21,6.91,0,.51-.11,1.01-.32,1.49l-19.66,2.62c-.35.05-.65.28-.79.61-.13.33-.08.7.14.98l1.24,1.56c-4.24-.38-8.46-1.45-11.88-3.19-2.4-1.22-4.16-2.64-5.15-4.11l7.67,2.03c.08.02.17.03.25.03.26,0,.52-.11.71-.3.25-.26.34-.63.24-.97l-2.87-9.7c2.66-.84,5.77-1.25,8.99-1.25ZM105.26,109.17c.01-1.95,1.55-3.77,4.33-5.14.24-.12.49-.22.74-.33l2.33,7.88-7.35-1.94c-.02-.16-.05-.31-.05-.47ZM106.85,91.95l2.92,9.85c-.36.15-.71.29-1.05.46-3.47,1.71-5.39,4.14-5.43,6.85l-27.14-7.16,30.7-9.99Z"/>
</svg>