<?xml version="1.0" encoding="UTF-8"?><svg id="Icons" xmlns="http://www.w3.org/2000/svg" viewBox="0 0 128 128"><path d="M74.61,43.5c-6.73-.42-16.55-.09-23.37-.23,0,0-11.02-.02-17.5-.03l18.69-16.16c-.63-1.76-1.72-3.26-3.6-4.27l-26.93,22.07c-.22.18-.42.4-.59.64-1.03,1.46-.66,3.5.81,4.51,9.07,6.15,17.92,12.63,26.55,19.41,1.71-.97,2.88-2.32,3.38-4.15-6.35-5.35-12.83-10.54-19.45-15.56,9.15-.01,24-.04,30.23-.05,19.35-.4,38,1.18,38.06,25.2.46,24.03-18.93,25.39-38.06,25.16-7.49.01-26.99.05-34.77.06-.69,1.92-.66,3.9,0,5.91,7.66,0,27.34.05,34.77.05,23.06.64,44.35-3.29,44.26-31.22.07-20.78-12.78-30.38-32.48-31.34Z"/></svg>