<?xml version="1.0" encoding="UTF-8"?><svg id="Icons" xmlns="http://www.w3.org/2000/svg" viewBox="0 0 128 128"><path d="M102.95,99.09c-1.06-24.37-2.62-48.76-3.56-73.14l-.02-.37v-.09s0-.05,0-.05c0,.13.03-.11-.09-.69-.13-.49-.31-.8-.44-.98-.3-.44-.73-.79-1.05-.96-.8-.45-.97-.36-1.57-.56-2.68-.5-5.3-.59-7.91-.78-17.07-.99-33.93-.74-51.05.2-2.14.2-4.31.2-6.44.88-.65.25-1.26.67-1.66,1.29-.13.18-.39.69-.46,1.19-.04.31-.04.47-.04.4,0,0,0,.03,0,.03v.21s-.03.42-.03.42c-.59,13.92-2.89,58.91-3.61,73.55-.45,5.75,4.86,9.26,9.98,6.67,2.17-1.17,11.45-6.46,13.72-7.72,4.32-2.42,8.73-4.89,13.1-7.23,1.01-.65,2.36-.78,3.47-.27,8.8,4.67,17.46,9.7,26.21,14.46,5.83,3.76,12.01.63,11.44-6.45ZM31.48,100.73s.02.01.03.02c0,0,0,0-.01,0-.08-.02-.06-.04-.01-.02ZM96.55,100.78s.03,0,.01,0c0,0-.01,0-.01,0ZM96.57,100.39c-.02.21-.06.33-.09.4-.05,0-.12,0-.24-.02-.13-.02-.29-.07-.42-.12-.03.02-1.54-.78-1.55-.78-8.87-4.52-17.9-8.81-26.72-13.43-.26-.12-.75-.32-1.04-.41-2.13-.67-4.46-.54-6.5.4-.33.19-2.74,1.41-3.15,1.65-6.18,3.29-14.99,7.59-21.32,10.84l-2.67,1.36s-.65.33-.65.33c-.19.07-.53.14-.7.14-.05-.12-.13-.43-.13-.83.57-14.05,2.21-56.36,2.93-72.17.03,0,.05,0,.08-.01,9.85-.84,19.89-.67,29.81-.55,9.79.13,19.71-.34,29.41.67,1.17,23.32,1.79,46.7,2.86,70.03,0,.32.09,1.79.09,2.06-.01.14.01.34-.02.45Z"/></svg>