<?xml version="1.0" encoding="UTF-8"?><svg id="Icons" xmlns="http://www.w3.org/2000/svg" viewBox="0 0 128 128"><path d="M102.95,99.09c-1.06-24.37-2.62-48.76-3.56-73.14l-.02-.37v-.09s0-.05,0-.05c0,.13.03-.11-.09-.69-.13-.49-.31-.8-.44-.98-.3-.44-.73-.79-1.05-.96-.8-.45-.97-.36-1.57-.56-2.68-.5-5.3-.59-7.91-.78-17.07-.99-33.93-.74-51.05.2-2.14.2-4.31.2-6.44.88-.65.25-1.26.67-1.66,1.29-.13.18-.39.69-.46,1.19-.04.31-.04.47-.04.4,0,0,0,.03,0,.03v.21s-.03.42-.03.42c-.59,13.92-2.89,58.91-3.61,73.55-.45,5.75,4.86,9.26,9.98,6.67,2.17-1.17,11.45-6.46,13.72-7.72,4.32-2.42,8.73-4.89,13.1-7.23,1.01-.65,2.36-.78,3.47-.27,8.8,4.67,17.46,9.7,26.21,14.46,5.83,3.76,12.01.63,11.44-6.45Z"/></svg>