<?xml version="1.0" encoding="UTF-8"?><svg id="Icons" xmlns="http://www.w3.org/2000/svg" viewBox="0 0 128 128"><path d="M63.56,106.49c-8.07,0-16.02-.5-25.02-1.51-1.94-.22-4.26-1.46-4.26-6.12v-57.95c0-5.19,2.85-6.12,4.55-6.21,3.55-.19,6.8-.34,9.94-.45.47,1.56.48,3.23.18,5-3.02.11-6.15.25-9.57.44-.05.23-.1.61-.1,1.23v57.95c0,.6.05.97.09,1.18,17.65,1.96,30.6,1.96,49.25-.01.05-.21.09-.59.09-1.19v-57.93c0-.62-.05-1-.1-1.23-3.42-.19-6.53-.33-9.54-.44-.47-1.72-.37-3.39.18-5,3.14.12,6.38.27,9.92.46,1.69.09,4.54,1.02,4.54,6.21v57.93c0,4.69-2.34,5.92-4.3,6.13-9.54,1.02-17.77,1.52-25.86,1.52Z"/><path d="M49.46,63.6c-2.74,0-5.47-.18-6.1-.54-.46-.27-.8-.83-.8-1.36v-10.81c0-1.77,1.46-1.77,6.9-1.77s6.9,0,6.9,1.77v10.81c0,.54-.34,1.09-.8,1.36-.63.36-3.37.54-6.1.54ZM53.36,61.69h0s0,0,0,0h0ZM45.56,60.48c1.9.15,5.91.15,7.8,0v-8.3c-1.94-.1-5.86-.1-7.8,0v8.3Z"/><path d="M49.46,80.32c-2.74,0-5.47-.18-6.1-.54-.46-.27-.8-.83-.8-1.36v-10.81c0-1.77,1.46-1.77,6.9-1.77s6.9,0,6.9,1.77v10.81c0,.54-.34,1.09-.8,1.36-.63.36-3.37.54-6.1.54ZM53.36,78.42h0s0,0,0,0h0ZM45.56,77.21c1.9.15,5.91.15,7.8,0v-8.3c-1.94-.1-5.86-.1-7.8,0v8.3Z"/><path d="M49.46,97.05c-2.74,0-5.47-.18-6.1-.54-.46-.27-.8-.83-.8-1.36v-10.81c0-1.77,1.46-1.77,6.9-1.77s6.9,0,6.9,1.77v10.81c0,.54-.34,1.09-.8,1.36-.63.36-3.37.54-6.1.54ZM53.36,95.15h0s0,0,0,0h0ZM45.56,93.94c1.9.15,5.91.15,7.8,0v-8.3c-1.94-.1-5.86-.1-7.8,0v8.3Z"/><path d="M63.9,44.75c-4.77,0-9.54-.33-10.69-1-.83-.48-.92-1.21-.92-1.5v-13.25c0-.83.67-1.5,1.5-1.5h3.87c.68-2.87,3.26-5,6.33-5s5.65,2.14,6.33,5h3.67c.83,0,1.5.67,1.5,1.5v13.25c0,.29-.09,1.02-.92,1.5-1.15.66-5.92.99-10.69.99ZM55.3,41.31c3.11.6,14.1.6,17.21,0v-10.8h-3.5c-.83,0-1.5-.67-1.5-1.5,0-1.93-1.57-3.5-3.5-3.5s-3.5,1.57-3.5,3.5c0,.83-.67,1.5-1.5,1.5h-3.7v10.8Z"/><path d="M83.72,57.85h-23.44c-.5-1-.5-2,0-3h23.44c.44,1,.44,2,0,3Z"/><path d="M83.72,74.58h-23.44c-.5-1-.5-2,0-3h23.44c.44,1,.44,2,0,3Z"/><path d="M83.72,91.31h-23.44c-.5-1-.5-2,0-3h23.44c.44,1,.44,2,0,3Z"/></svg>