<?xml version="1.0" encoding="UTF-8"?>
<svg id="T3_Icons" data-name="T3 Icons" xmlns="http://www.w3.org/2000/svg" viewBox="0 0 128 128">
  <path d="M105.51,72.51c1.64-5.67,1.64-11.34,0-17.01h-8.2c-.82-3.21-2.09-6.24-3.75-9.02l5.81-5.81c-2.85-5.17-6.86-9.18-12.03-12.03l-5.81,5.81c-2.78-1.65-5.81-2.93-9.02-3.74v-8.2c-5.67-1.64-11.34-1.64-17.01,0v8.2c-3.21.82-6.24,2.09-9.02,3.75l-5.8-5.81c-5.17,2.85-9.18,6.86-12.03,12.03l5.81,5.81c-1.65,2.78-2.93,5.81-3.74,9.02h-8.2c-1.64,5.67-1.64,11.34,0,17.01h8.2c.82,3.21,2.09,6.24,3.75,9.02l-5.81,5.81c2.85,5.17,6.86,9.18,12.03,12.03l5.81-5.81c2.78,1.65,5.81,2.93,9.02,3.74v8.2c5.67,1.64,11.34,1.64,17.01,0v-8.2c3.21-.82,6.24-2.09,9.02-3.75l5.81,5.81c5.17-2.85,9.18-6.86,12.03-12.03l-5.81-5.81c1.65-2.78,2.93-5.81,3.74-9.02h8.2ZM64,77.3c-7.35,0-13.3-5.96-13.3-13.3s5.96-13.3,13.3-13.3,13.3,5.96,13.3,13.3-5.96,13.3-13.3,13.3Z"/>
</svg>