<?xml version="1.0" encoding="UTF-8"?><svg id="Icons" xmlns="http://www.w3.org/2000/svg" viewBox="0 0 128 128"><path d="M41.8,103.94c-.82,0-1.48-.26-2-.78-.52-.52-.78-1.18-.78-2v-7.55c0-.81.26-1.48.78-2,.52-.52,1.18-.78,2-.78h13.65v-30.3h-12.88c-.89,0-1.59-.24-2.11-.72-.52-.48-.78-1.17-.78-2.05v-7.44c0-.89.26-1.59.78-2.11s1.22-.78,2.11-.78h25.53c3.48,0,5.22,1.74,5.22,5.22v38.18h13.65c.89,0,1.57.26,2.05.78.48.52.72,1.18.72,2v7.55c0,.81-.24,1.48-.72,2-.48.52-1.17.78-2.05.78h-45.18ZM58.23,41.89c-3.7,0-5.55-1.81-5.55-5.44v-5c0-1.78.46-3.13,1.39-4.05s2.31-1.39,4.16-1.39h9.1c1.85,0,3.24.46,4.16,1.39.92.93,1.39,2.28,1.39,4.05v5c0,3.63-1.85,5.44-5.55,5.44h-9.1Z"/></svg>