<?xml version="1.0" encoding="UTF-8"?><svg id="Icons" xmlns="http://www.w3.org/2000/svg" viewBox="0 0 128 128"><path d="M106.3,24.08c0-.43-.08-.87-.25-1.28-.51-1.2-1.68-1.98-2.98-1.98l-27.99-.11c-.9,2.02-.75,4.22-.03,6.5l20.43.08c-20.09,21.24-35.33,39.7-46.49,56.3,1.17,2.06,2.91,3.34,5.39,3.63,10.87-16.17,25.77-34.22,45.39-54.99l-.08,19.76c2.28.6,4.47.73,6.5.03l.11-27.93h0Z"/><path d="M89.95,99.48c-19.92,1.75-40.18,1.74-61.77-.02v-61.84c13.18-.89,26.5-1.21,39.66-.95.77-2.11.83-4.28.12-6.5-14.36-.27-28.92.12-43.27,1.18-1.7.13-3.01,1.54-3.01,3.24v67.86c0,1.68,1.29,3.09,2.96,3.24,12.08,1.07,23.75,1.6,35.16,1.6s22.61-.53,33.7-1.6c1.67-.16,2.94-1.56,2.94-3.23v-41.87c-2.25-.78-4.41-.72-6.5,0v38.91Z"/></svg>