<?xml version="1.0" encoding="UTF-8"?><svg id="Icons" xmlns="http://www.w3.org/2000/svg" viewBox="0 0 128 128"><path d="M55.19,65.56c0-3.87,1.9-5.8,5.69-5.8h3.46c2.97,0,5.17-.71,6.58-2.12s2.12-3.79,2.12-7.14v-5.47c0-2.83-.73-4.96-2.18-6.42-1.45-1.45-3.92-2.18-7.42-2.18s-6.06.69-7.47,2.06c-1.41,1.38-2.12,3.4-2.12,6.08v2.57c0,1.12-.32,2.03-.95,2.73-.63.71-1.54,1.06-2.73,1.06h-9.71c-1.12,0-2.01-.35-2.68-1.06-.67-.71-1-1.65-1-2.85v-2.9c0-6.17,2.23-11.04,6.69-14.62,4.46-3.57,11.12-5.35,19.97-5.35s15.43,1.8,20.19,5.41c4.76,3.61,7.14,8.94,7.14,16.01v4.69c0,7.22-1.95,12.51-5.86,15.9-3.9,3.39-9.73,5.08-17.46,5.08h-5.24l9.48-6.02v7.36c0,2.38-.69,4.31-2.06,5.8-1.38,1.49-3.29,2.23-5.75,2.23h-.78c-2.38,0-4.3-.74-5.75-2.23-1.45-1.49-2.18-3.42-2.18-5.8v-7.03ZM53.4,97.69v-5.8c0-2.16.54-3.79,1.62-4.91,1.08-1.12,2.73-1.67,4.96-1.67h6.81c2.23,0,3.87.56,4.91,1.67,1.04,1.12,1.56,2.75,1.56,4.91v5.8c0,2.08-.52,3.68-1.56,4.8-1.04,1.12-2.68,1.67-4.91,1.67h-6.81c-2.23,0-3.89-.56-4.96-1.67-1.08-1.12-1.62-2.71-1.62-4.8Z"/></svg>